# xmcd
#
# Track frame offsets: 
#        150
#        30525
#        47700
#
# Disc length: 920 seconds
#
# Revision: 0
# Processed by: cddbd v1.5.2PL0 Copyright (c) Steve Scherf et al.
# Submitted via: ExactAudioCopy v1.0b3
#
DISCID=1c039603
DTITLE=宮内ゆたか - このまま恋に落ちたなら
DYEAR=2014
DGENRE=Soul
TTITLE0=君の声
TTITLE1=ふたり
TTITLE2=このまま恋に落ちたなら
EXTD=
EXTT0=
EXTT1=
EXTT2=
PLAYORDER=
